<?xml version="1.0" encoding="utf-8"?>
<!-- Generator: Adobe Illustrator 21.1.0, SVG Export Plug-In . SVG Version: 6.00 Build 0)  -->
<svg version="1.1" id="Layer_1" xmlns="http://www.w3.org/2000/svg" xmlns:xlink="http://www.w3.org/1999/xlink" x="0px" y="0px"
	 viewBox="0 0 200 59.7" style="enable-background:new 0 0 200 59.7;" xml:space="preserve">
<style type="text/css">
	.st0{fill:none;}
	.st1{fill:#FCED17;}
	.st2{fill:#58B847;}
	.st3{fill:#FFD62B;}
</style>
<title>logo-eezeepeezee--rus</title>
<rect class="st0" width="200" height="59.7"/>
<path d="M97.2,3.8v14.1l8.7-14.1h3.3v20h-3.5V9.7L97,23.8h-3.3v-20L97.2,3.8z"/>
<path d="M115.3,20.2c0.6,0.2,1.2,0.3,1.9,0.4c0.7,0.1,1.3,0.2,2,0.3c0.7,0.1,1.3,0.2,1.9,0.2s1.1,0.1,1.6,0.1c0.9,0,1.9-0.1,2.8-0.2
	c0.6-0.1,1.2-0.3,1.8-0.6c0.4-0.2,0.7-0.6,0.9-1s0.3-0.9,0.3-1.3s-0.1-0.9-0.3-1.3s-0.5-0.8-0.9-1c-0.5-0.3-1.1-0.6-1.8-0.7
	c-0.9-0.2-1.9-0.3-2.8-0.2h-4.9v-2.7h4.9c0.8,0,1.7-0.1,2.5-0.2c0.5-0.1,1.1-0.3,1.5-0.6c0.3-0.2,0.6-0.5,0.8-0.9
	c0.1-0.4,0.2-0.8,0.2-1.2s-0.1-0.8-0.3-1.2c-0.2-0.4-0.5-0.7-0.8-0.9c-0.5-0.3-1-0.5-1.5-0.6c-0.8-0.1-1.6-0.2-2.4-0.2
	c-1.1,0-2.3,0.1-3.4,0.2c-1.2,0.1-2.5,0.4-3.7,0.6V4.3c0.5-0.1,1.1-0.2,1.8-0.3c0.6-0.1,1.3-0.2,1.9-0.3c0.7-0.1,1.3-0.1,1.9-0.2
	c0.6,0,1.2-0.1,1.8-0.1c1.3,0,2.6,0.1,3.9,0.4c0.9,0.2,1.8,0.6,2.5,1.1c0.6,0.4,1.1,1,1.4,1.7c0.3,0.7,0.4,1.4,0.4,2.1
	c0,0.5-0.1,1.1-0.2,1.6c-0.2,0.5-0.4,0.9-0.7,1.3c-0.4,0.4-0.8,0.7-1.3,1c-0.6,0.3-1.2,0.5-1.8,0.6c0.7,0.1,1.4,0.3,2,0.5
	s1.1,0.6,1.6,1c0.9,0.9,1.5,2.1,1.4,3.3c0,0.8-0.2,1.7-0.5,2.4c-0.4,0.8-1,1.5-1.7,1.9c-0.9,0.6-1.9,1-3,1.3
	c-1.5,0.3-3.1,0.5-4.6,0.5c-0.5,0-1,0-1.6,0s-1.2,0-1.9-0.1c-0.6-0.1-1.2-0.1-1.9-0.2c-0.6-0.1-1.2-0.2-1.7-0.3V20.2z"/>
<path d="M142,3.8v14.1l8.7-14.1h3.3v20h-3.5V9.7l-8.7,14.1h-3.3v-20L142,3.8z"/>
<path d="M87.1,51.6h-3.5v-17h-9.1v17H71v-20h16L87.1,51.6z"/>
<path d="M97.2,31.6v14.1l8.7-14.1h3.3v20h-3.5V37.5L97,51.6h-3.3v-20L97.2,31.6z"/>
<path d="M115.3,48c0.6,0.2,1.2,0.3,1.9,0.4s1.3,0.2,2,0.3s1.3,0.2,1.9,0.2s1.1,0.1,1.6,0.1c0.9,0,1.9-0.1,2.8-0.2
	c0.6-0.1,1.2-0.3,1.8-0.6c0.4-0.2,0.7-0.6,0.9-1s0.3-0.9,0.3-1.3c0-0.4-0.1-0.9-0.3-1.3c-0.2-0.4-0.5-0.8-0.9-1
	c-0.5-0.3-1.1-0.6-1.8-0.7c-0.9-0.2-1.9-0.3-2.8-0.2h-4.9V40h4.9c0.8,0,1.7-0.1,2.5-0.2c0.5-0.1,1.1-0.3,1.5-0.6
	c0.3-0.2,0.6-0.5,0.8-0.9c0.1-0.4,0.2-0.8,0.2-1.2s-0.1-0.8-0.3-1.2c-0.2-0.4-0.5-0.7-0.8-0.9c-0.5-0.3-1-0.5-1.5-0.6
	c-0.8-0.1-1.6-0.2-2.4-0.2c-1.1,0-2.3,0.1-3.4,0.2c-1.2,0.1-2.5,0.4-3.7,0.6v-2.9c0.5-0.1,1.1-0.2,1.8-0.3c0.6-0.1,1.3-0.2,1.9-0.3
	c0.7-0.1,1.3-0.1,1.9-0.2c0.6,0,1.2-0.1,1.8-0.1c1.3,0,2.6,0.1,3.9,0.4c0.9,0.2,1.8,0.6,2.5,1.1c0.6,0.4,1.1,1,1.4,1.7
	c0.3,0.7,0.4,1.4,0.4,2.1c0,0.5-0.1,1-0.3,1.5s-0.4,0.9-0.7,1.3c-0.4,0.4-0.8,0.7-1.3,1c-0.6,0.3-1.2,0.5-1.8,0.6
	c0.7,0.1,1.4,0.3,2,0.5s1.1,0.6,1.6,1c0.9,0.9,1.5,2.1,1.4,3.3c0,0.8-0.2,1.7-0.5,2.4c-0.4,0.8-0.9,1.5-1.7,2c-0.9,0.6-1.9,1-3,1.3
	c-1.5,0.3-3.1,0.5-4.6,0.5c-0.5,0-1,0-1.6,0s-1.2,0-1.8-0.1c-0.6-0.1-1.2-0.1-1.9-0.2c-0.6-0.1-1.2-0.2-1.7-0.3L115.3,48z"/>
<path d="M142,31.6v14.1l8.7-14.1h3.3v20h-3.5V37.5l-8.7,14.1h-3.3v-20L142,31.6z"/>
<rect class="st1" width="25.8" height="25.8"/>
<rect x="25.8" class="st2" width="25.8" height="25.8"/>
<rect y="25.8" class="st3" width="25.8" height="25.8"/>
<rect x="25.8" y="25.8" class="st1" width="25.8" height="25.8"/>
</svg>
